# xmcd
#
# Track frame offsets:
# 150
# 10140
# 20987
# 34225
# 43577
# 54895
# 64560
# 75737
# 88055
# 99497
# 109345
# 121592
# 132545
# 140152
# 153165
# 173517
# 185455
# 203052
# 216710
# 229632
# 248715
# 262092
# 273707
# 286412
#
# Disc length: 4102 seconds
#
# Revision: 0
# Processed by: cddbd v1.5PL3 Copyright (c) Steve Scherf et al.
# Submitted via: Audion 3.0.2 (http://www.panic.com/audion/)
#
DISCID=5e100418
DTITLE=Billy Preston - The Wildest Organ in Town - Club Meeting
DYEAR=1900
DGENRE=
TTITLE0=Midnight Hour
TTITLE1=Uptight
TTITLE2=A Hard Days Night
TTITLE3=Aint Got No Time To Play
TTITLE4=Love Makes Me Do Foolish Things
TTITLE5=The Duck
TTITLE6=Advice
TTITLE7=Satisfaction
TTITLE8=I Got You
TTITLE9=It's Got To Happen
TTITLE10=Free Funk
TTITLE11=The In Crowd
TTITLE12=Introduction
TTITLE13=Sunny
TTITLE14=Hoochie Coochie Man
TTITLE15=Billy's Groove
TTITLE16=No Man Is An Island
TTITLE17=Let The Music Play
TTITLE18=Wade In The Water
TTITLE19=Summertime
TTITLE20=This Little Light Of Mine
TTITLE21=Ike's Theme
TTITLE22=Together
TTITLE23=James Brown Medley
EXTD=
EXTT0=
EXTT1=
EXTT2=
EXTT3=
EXTT4=
EXTT5=
EXTT6=
EXTT7=
EXTT8=
EXTT9=
EXTT10=
EXTT11=
EXTT12=
EXTT13=
EXTT14=
EXTT15=
EXTT16=
EXTT17=
EXTT18=
EXTT19=
EXTT20=
EXTT21=
EXTT22=
EXTT23=
PLAYORDER=
